<svg width="446" height="335" viewBox="0 0 446 335" fill="none" xmlns="http://www.w3.org/2000/svg">
<path d="M200.068 103.256L176.467 71.2629L1.60791 333.708H151.816L225.347 221.576L270.032 288.708H218.319L189.578 333.708L351.849 332.973L225.871 145.318L130.208 289.652H75.0338L200.068 103.256Z" fill="white"/>
<path d="M271.664 76.4158L247.603 110.492L396.134 333.679H444.647L271.664 76.4158Z" fill="white"/>
<path d="M197.139 36.0965L222.631 1.63007L245.439 36.0965L222.631 73.5514L197.139 36.0965Z" fill="white"/>
<path d="M200.068 103.256L176.467 71.2629L1.60791 333.708H151.816L225.347 221.576L270.032 288.708H218.319L189.578 333.708L351.849 332.973L225.871 145.318L130.208 289.652H75.0338L200.068 103.256Z" stroke="black"/>
<path d="M271.664 76.4158L247.603 110.492L396.134 333.679H444.647L271.664 76.4158Z" stroke="black"/>
<path d="M197.139 36.0965L222.631 1.63007L245.439 36.0965L222.631 73.5514L197.139 36.0965Z" stroke="black"/>
</svg>
